<svg height='100px' width='100px'  fill="orangered" xmlns="http://www.w3.org/2000/svg" xmlns:xlink="http://www.w3.org/1999/xlink" version="1.1" x="0px" y="0px" viewBox="0 0 85 85" style="enable-background:new 0 0 85 85;" xml:space="preserve"><g><g><path d="M56.2,28H28.8c-0.7,0-1.3-0.6-1.3-1.3s0.6-1.3,1.3-1.3h27.3c0.7,0,1.3,0.6,1.3,1.3S56.9,28,56.2,28z"></path></g><g><path d="M52.7,33.9H32.3c-0.7,0-1.3-0.6-1.3-1.3s0.6-1.3,1.3-1.3h20.4c0.7,0,1.3,0.6,1.3,1.3S53.4,33.9,52.7,33.9z"></path></g><g><g><path d="M42.5,41c4.8,0,8.8,3.9,8.8,8.8c0,4.8-3.9,8.8-8.8,8.8c-4.8,0-8.8-3.9-8.8-8.8C33.7,44.9,37.7,41,42.5,41 M42.5,38.5     c-6.2,0-11.3,5.1-11.3,11.3C31.2,56,36.3,61,42.5,61c6.2,0,11.3-5.1,11.3-11.3C53.8,43.5,48.7,38.5,42.5,38.5L42.5,38.5z"></path></g><g><path d="M42.5,46.3c1.9,0,3.5,1.6,3.5,3.5s-1.6,3.5-3.5,3.5S39,51.7,39,49.7S40.6,46.3,42.5,46.3 M42.5,43.8c-3.3,0-6,2.7-6,6     c0,3.3,2.7,6,6,6s6-2.7,6-6C48.5,46.4,45.8,43.8,42.5,43.8L42.5,43.8z"></path></g><g><g><path d="M50,73.2c-0.5,0-0.9-0.3-1.1-0.7l-5.6-11.9l2.3-1.1l4.1,8.7l0.7-2.8c0.1-0.4,0.3-0.7,0.7-0.8c0.3-0.2,0.7-0.2,1.1,0      l2.8,1.2L50,55.8l2.3-1.1l6.2,13c0.2,0.5,0.1,1-0.2,1.4c-0.4,0.4-0.9,0.5-1.4,0.3l-4.5-2l-1.2,4.8c-0.1,0.5-0.6,0.9-1.1,0.9      C50.1,73.1,50,73.2,50,73.2z"></path></g><g><path d="M35,73.2c0,0-0.1,0-0.1,0c-0.5-0.1-1-0.4-1.1-0.9l-1.2-4.8l-4.5,2c-0.5,0.2-1,0.1-1.4-0.3c-0.4-0.4-0.5-0.9-0.2-1.4      l4.4-9l2.2,1.1l-2.9,5.9l2.7-1.2c0.3-0.2,0.7-0.1,1.1,0c0.3,0.2,0.6,0.5,0.7,0.8l0.7,2.8l4.1-8.7l2.3,1.1l-5.6,11.9      C35.9,72.9,35.5,73.2,35,73.2z"></path></g></g></g><g><polygon points="73.3,57.7 57,57.7 57,55.2 70.8,55.2 70.8,14.3 14.3,14.3 14.3,55.2 28.3,55.2 28.3,57.7 11.8,57.7 11.8,11.8     73.3,11.8   "></polygon></g><g><g><g><g><g><g><polygon points="19.6,25.6 17.1,25.6 17.1,17 25.7,17 25.7,19.5 19.6,19.5        "></polygon></g><g><polygon points="67.9,25.6 65.4,25.6 65.4,19.5 59.3,19.5 59.3,17 67.9,17        "></polygon></g></g></g><g><g><g><polygon points="67.9,52.5 59.3,52.5 59.3,50 65.4,50 65.4,44 67.9,44        "></polygon></g><g><polygon points="25.7,52.5 17.1,52.5 17.1,44 19.6,44 19.6,50 25.7,50        "></polygon></g></g></g></g></g></g></g></svg>